<?xml version='1.0' encoding='UTF-8'?>
<svg width="47mm" height="47mm" version="1.1" viewBox="0 0 47 47" xmlns="http://www.w3.org/2000/svg"><rect fill="white" x="0" y="0" width="100%" height="100%"/><path d="M1,1H2V2H1zM2,1H3V2H2zM3,1H4V2H3zM4,1H5V2H4zM5,1H6V2H5zM6,1H7V2H6zM7,1H8V2H7zM11,1H12V2H11zM12,1H13V2H12zM13,1H14V2H13zM15,1H16V2H15zM16,1H17V2H16zM18,1H19V2H18zM21,1H22V2H21zM23,1H24V2H23zM27,1H28V2H27zM31,1H32V2H31zM32,1H33V2H32zM33,1H34V2H33zM34,1H35V2H34zM37,1H38V2H37zM39,1H40V2H39zM40,1H41V2H40zM41,1H42V2H41zM42,1H43V2H42zM43,1H44V2H43zM44,1H45V2H44zM45,1H46V2H45zM1,2H2V3H1zM7,2H8V3H7zM9,2H10V3H9zM10,2H11V3H10zM11,2H12V3H11zM13,2H14V3H13zM15,2H16V3H15zM17,2H18V3H17zM20,2H21V3H20zM23,2H24V3H23zM25,2H26V3H25zM26,2H27V3H26zM27,2H28V3H27zM28,2H29V3H28zM29,2H30V3H29zM33,2H34V3H33zM34,2H35V3H34zM36,2H37V3H36zM39,2H40V3H39zM45,2H46V3H45zM1,3H2V4H1zM3,3H4V4H3zM4,3H5V4H4zM5,3H6V4H5zM7,3H8V4H7zM11,3H12V4H11zM13,3H14V4H13zM14,3H15V4H14zM17,3H18V4H17zM18,3H19V4H18zM19,3H20V4H19zM20,3H21V4H20zM21,3H22V4H21zM24,3H25V4H24zM25,3H26V4H25zM26,3H27V4H26zM29,3H30V4H29zM30,3H31V4H30zM34,3H35V4H34zM36,3H37V4H36zM39,3H40V4H39zM41,3H42V4H41zM42,3H43V4H42zM43,3H44V4H43zM45,3H46V4H45zM1,4H2V5H1zM3,4H4V5H3zM4,4H5V5H4zM5,4H6V5H5zM7,4H8V5H7zM9,4H10V5H9zM10,4H11V5H10zM12,4H13V5H12zM15,4H16V5H15zM17,4H18V5H17zM20,4H21V5H20zM22,4H23V5H22zM23,4H24V5H23zM26,4H27V5H26zM27,4H28V5H27zM28,4H29V5H28zM29,4H30V5H29zM30,4H31V5H30zM31,4H32V5H31zM33,4H34V5H33zM34,4H35V5H34zM36,4H37V5H36zM37,4H38V5H37zM39,4H40V5H39zM41,4H42V5H41zM42,4H43V5H42zM43,4H44V5H43zM45,4H46V5H45zM1,5H2V6H1zM3,5H4V6H3zM4,5H5V6H4zM5,5H6V6H5zM7,5H8V6H7zM9,5H10V6H9zM10,5H11V6H10zM13,5H14V6H13zM14,5H15V6H14zM17,5H18V6H17zM18,5H19V6H18zM19,5H20V6H19zM21,5H22V6H21zM22,5H23V6H22zM23,5H24V6H23zM24,5H25V6H24zM25,5H26V6H25zM27,5H28V6H27zM30,5H31V6H30zM31,5H32V6H31zM32,5H33V6H32zM33,5H34V6H33zM35,5H36V6H35zM36,5H37V6H36zM37,5H38V6H37zM39,5H40V6H39zM41,5H42V6H41zM42,5H43V6H42zM43,5H44V6H43zM45,5H46V6H45zM1,6H2V7H1zM7,6H8V7H7zM10,6H11V7H10zM11,6H12V7H11zM14,6H15V7H14zM17,6H18V7H17zM18,6H19V7H18zM19,6H20V7H19zM21,6H22V7H21zM25,6H26V7H25zM26,6H27V7H26zM29,6H30V7H29zM30,6H31V7H30zM39,6H40V7H39zM45,6H46V7H45zM1,7H2V8H1zM2,7H3V8H2zM3,7H4V8H3zM4,7H5V8H4zM5,7H6V8H5zM6,7H7V8H6zM7,7H8V8H7zM9,7H10V8H9zM11,7H12V8H11zM13,7H14V8H13zM15,7H16V8H15zM17,7H18V8H17zM19,7H20V8H19zM21,7H22V8H21zM23,7H24V8H23zM25,7H26V8H25zM27,7H28V8H27zM29,7H30V8H29zM31,7H32V8H31zM33,7H34V8H33zM35,7H36V8H35zM37,7H38V8H37zM39,7H40V8H39zM40,7H41V8H40zM41,7H42V8H41zM42,7H43V8H42zM43,7H44V8H43zM44,7H45V8H44zM45,7H46V8H45zM9,8H10V9H9zM10,8H11V9H10zM12,8H13V9H12zM13,8H14V9H13zM14,8H15V9H14zM18,8H19V9H18zM19,8H20V9H19zM21,8H22V9H21zM25,8H26V9H25zM29,8H30V9H29zM30,8H31V9H30zM31,8H32V9H31zM33,8H34V9H33zM34,8H35V9H34zM37,8H38V9H37zM2,9H3V10H2zM4,9H5V10H4zM5,9H6V10H5zM6,9H7V10H6zM7,9H8V10H7zM9,9H10V10H9zM10,9H11V10H10zM12,9H13V10H12zM13,9H14V10H13zM21,9H22V10H21zM22,9H23V10H22zM23,9H24V10H23zM24,9H25V10H24zM25,9H26V10H25zM26,9H27V10H26zM27,9H28V10H27zM29,9H30V10H29zM31,9H32V10H31zM38,9H39V10H38zM39,9H40V10H39zM41,9H42V10H41zM42,9H43V10H42zM44,9H45V10H44zM1,10H2V11H1zM4,10H5V11H4zM8,10H9V11H8zM9,10H10V11H9zM10,10H11V11H10zM11,10H12V11H11zM16,10H17V11H16zM17,10H18V11H17zM20,10H21V11H20zM26,10H27V11H26zM27,10H28V11H27zM31,10H32V11H31zM32,10H33V11H32zM33,10H34V11H33zM34,10H35V11H34zM35,10H36V11H35zM36,10H37V11H36zM37,10H38V11H37zM38,10H39V11H38zM39,10H40V11H39zM41,10H42V11H41zM1,11H2V12H1zM7,11H8V12H7zM8,11H9V12H8zM13,11H14V12H13zM14,11H15V12H14zM16,11H17V12H16zM17,11H18V12H17zM19,11H20V12H19zM20,11H21V12H20zM21,11H22V12H21zM22,11H23V12H22zM24,11H25V12H24zM25,11H26V12H25zM27,11H28V12H27zM28,11H29V12H28zM29,11H30V12H29zM32,11H33V12H32zM33,11H34V12H33zM34,11H35V12H34zM38,11H39V12H38zM42,11H43V12H42zM44,11H45V12H44zM45,11H46V12H45zM5,12H6V13H5zM6,12H7V13H6zM8,12H9V13H8zM10,12H11V13H10zM11,12H12V13H11zM12,12H13V13H12zM14,12H15V13H14zM15,12H16V13H15zM17,12H18V13H17zM18,12H19V13H18zM20,12H21V13H20zM21,12H22V13H21zM24,12H25V13H24zM25,12H26V13H25zM26,12H27V13H26zM27,12H28V13H27zM31,12H32V13H31zM34,12H35V13H34zM38,12H39V13H38zM40,12H41V13H40zM41,12H42V13H41zM43,12H44V13H43zM44,12H45V13H44zM1,13H2V14H1zM3,13H4V14H3zM5,13H6V14H5zM6,13H7V14H6zM7,13H8V14H7zM10,13H11V14H10zM13,13H14V14H13zM15,13H16V14H15zM17,13H18V14H17zM19,13H20V14H19zM20,13H21V14H20zM21,13H22V14H21zM22,13H23V14H22zM29,13H30V14H29zM31,13H32V14H31zM33,13H34V14H33zM35,13H36V14H35zM36,13H37V14H36zM41,13H42V14H41zM42,13H43V14H42zM43,13H44V14H43zM45,13H46V14H45zM1,14H2V15H1zM3,14H4V15H3zM5,14H6V15H5zM6,14H7V15H6zM10,14H11V15H10zM11,14H12V15H11zM13,14H14V15H13zM14,14H15V15H14zM17,14H18V15H17zM18,14H19V15H18zM19,14H20V15H19zM20,14H21V15H20zM26,14H27V15H26zM27,14H28V15H27zM28,14H29V15H28zM29,14H30V15H29zM30,14H31V15H30zM31,14H32V15H31zM33,14H34V15H33zM37,14H38V15H37zM39,14H40V15H39zM40,14H41V15H40zM43,14H44V15H43zM44,14H45V15H44zM1,15H2V16H1zM2,15H3V16H2zM6,15H7V16H6zM7,15H8V16H7zM8,15H9V16H8zM9,15H10V16H9zM10,15H11V16H10zM13,15H14V16H13zM16,15H17V16H16zM17,15H18V16H17zM20,15H21V16H20zM21,15H22V16H21zM22,15H23V16H22zM27,15H28V16H27zM30,15H31V16H30zM33,15H34V16H33zM36,15H37V16H36zM37,15H38V16H37zM38,15H39V16H38zM39,15H40V16H39zM40,15H41V16H40zM41,15H42V16H41zM42,15H43V16H42zM3,16H4V17H3zM6,16H7V17H6zM8,16H9V17H8zM9,16H10V17H9zM13,16H14V17H13zM14,16H15V17H14zM16,16H17V17H16zM18,16H19V17H18zM19,16H20V17H19zM20,16H21V17H20zM21,16H22V17H21zM23,16H24V17H23zM25,16H26V17H25zM26,16H27V17H26zM30,16H31V17H30zM32,16H33V17H32zM36,16H37V17H36zM37,16H38V17H37zM38,16H39V17H38zM40,16H41V17H40zM43,16H44V17H43zM44,16H45V17H44zM1,17H2V18H1zM2,17H3V18H2zM3,17H4V18H3zM7,17H8V18H7zM10,17H11V18H10zM12,17H13V18H12zM14,17H15V18H14zM16,17H17V18H16zM17,17H18V18H17zM18,17H19V18H18zM19,17H20V18H19zM20,17H21V18H20zM24,17H25V18H24zM26,17H27V18H26zM27,17H28V18H27zM28,17H29V18H28zM32,17H33V18H32zM33,17H34V18H33zM34,17H35V18H34zM35,17H36V18H35zM44,17H45V18H44zM45,17H46V18H45zM3,18H4V19H3zM4,18H5V19H4zM5,18H6V19H5zM11,18H12V19H11zM12,18H13V19H12zM15,18H16V19H15zM16,18H17V19H16zM18,18H19V19H18zM19,18H20V19H19zM20,18H21V19H20zM21,18H22V19H21zM26,18H27V19H26zM28,18H29V19H28zM31,18H32V19H31zM32,18H33V19H32zM35,18H36V19H35zM36,18H37V19H36zM37,18H38V19H37zM38,18H39V19H38zM40,18H41V19H40zM41,18H42V19H41zM42,18H43V19H42zM45,18H46V19H45zM2,19H3V20H2zM5,19H6V20H5zM7,19H8V20H7zM8,19H9V20H8zM9,19H10V20H9zM11,19H12V20H11zM16,19H17V20H16zM17,19H18V20H17zM18,19H19V20H18zM19,19H20V20H19zM22,19H23V20H22zM23,19H24V20H23zM24,19H25V20H24zM26,19H27V20H26zM28,19H29V20H28zM29,19H30V20H29zM32,19H33V20H32zM33,19H34V20H33zM34,19H35V20H34zM40,19H41V20H40zM41,19H42V20H41zM42,19H43V20H42zM45,19H46V20H45zM2,20H3V21H2zM3,20H4V21H3zM8,20H9V21H8zM9,20H10V21H9zM11,20H12V21H11zM12,20H13V21H12zM13,20H14V21H13zM14,20H15V21H14zM15,20H16V21H15zM16,20H17V21H16zM18,20H19V21H18zM24,20H25V21H24zM25,20H26V21H25zM30,20H31V21H30zM32,20H33V21H32zM34,20H35V21H34zM35,20H36V21H35zM37,20H38V21H37zM39,20H40V21H39zM42,20H43V21H42zM43,20H44V21H43zM1,21H2V22H1zM4,21H5V22H4zM5,21H6V22H5zM6,21H7V22H6zM7,21H8V22H7zM8,21H9V22H8zM9,21H10V22H9zM12,21H13V22H12zM14,21H15V22H14zM16,21H17V22H16zM17,21H18V22H17zM18,21H19V22H18zM21,21H22V22H21zM22,21H23V22H22zM23,21H24V22H23zM24,21H25V22H24zM25,21H26V22H25zM26,21H27V22H26zM27,21H28V22H27zM34,21H35V22H34zM37,21H38V22H37zM38,21H39V22H38zM39,21H40V22H39zM40,21H41V22H40zM41,21H42V22H41zM43,21H44V22H43zM45,21H46V22H45zM1,22H2V23H1zM2,22H3V23H2zM5,22H6V23H5zM9,22H10V23H9zM10,22H11V23H10zM11,22H12V23H11zM12,22H13V23H12zM17,22H18V23H17zM20,22H21V23H20zM21,22H22V23H21zM25,22H26V23H25zM26,22H27V23H26zM30,22H31V23H30zM32,22H33V23H32zM34,22H35V23H34zM35,22H36V23H35zM36,22H37V23H36zM37,22H38V23H37zM41,22H42V23H41zM1,23H2V24H1zM2,23H3V24H2zM4,23H5V24H4zM5,23H6V24H5zM7,23H8V24H7zM9,23H10V24H9zM10,23H11V24H10zM12,23H13V24H12zM13,23H14V24H13zM15,23H16V24H15zM20,23H21V24H20zM21,23H22V24H21zM23,23H24V24H23zM25,23H26V24H25zM27,23H28V24H27zM29,23H30V24H29zM30,23H31V24H30zM31,23H32V24H31zM32,23H33V24H32zM34,23H35V24H34zM35,23H36V24H35zM37,23H38V24H37zM39,23H40V24H39zM41,23H42V24H41zM42,23H43V24H42zM43,23H44V24H43zM44,23H45V24H44zM45,23H46V24H45zM1,24H2V25H1zM2,24H3V25H2zM3,24H4V25H3zM4,24H5V25H4zM5,24H6V25H5zM9,24H10V25H9zM10,24H11V25H10zM13,24H14V25H13zM14,24H15V25H14zM18,24H19V25H18zM21,24H22V25H21zM25,24H26V25H25zM26,24H27V25H26zM27,24H28V25H27zM29,24H30V25H29zM33,24H34V25H33zM34,24H35V25H34zM35,24H36V25H35zM36,24H37V25H36zM37,24H38V25H37zM41,24H42V25H41zM43,24H44V25H43zM2,25H3V26H2zM5,25H6V26H5zM6,25H7V26H6zM7,25H8V26H7zM8,25H9V26H8zM9,25H10V26H9zM13,25H14V26H13zM14,25H15V26H14zM15,25H16V26H15zM20,25H21V26H20zM21,25H22V26H21zM22,25H23V26H22zM23,25H24V26H23zM24,25H25V26H24zM25,25H26V26H25zM27,25H28V26H27zM29,25H30V26H29zM33,25H34V26H33zM34,25H35V26H34zM35,25H36V26H35zM36,25H37V26H36zM37,25H38V26H37zM38,25H39V26H38zM39,25H40V26H39zM40,25H41V26H40zM41,25H42V26H41zM45,25H46V26H45zM1,26H2V27H1zM4,26H5V27H4zM5,26H6V27H5zM10,26H11V27H10zM11,26H12V27H11zM12,26H13V27H12zM14,26H15V27H14zM15,26H16V27H15zM20,26H21V27H20zM21,26H22V27H21zM24,26H25V27H24zM27,26H28V27H27zM30,26H31V27H30zM31,26H32V27H31zM37,26H38V27H37zM38,26H39V27H38zM39,26H40V27H39zM40,26H41V27H40zM42,26H43V27H42zM44,26H45V27H44zM45,26H46V27H45zM3,27H4V28H3zM4,27H5V28H4zM7,27H8V28H7zM13,27H14V28H13zM15,27H16V28H15zM17,27H18V28H17zM19,27H20V28H19zM24,27H25V28H24zM27,27H28V28H27zM29,27H30V28H29zM33,27H34V28H33zM34,27H35V28H34zM37,27H38V28H37zM40,27H41V28H40zM42,27H43V28H42zM1,28H2V29H1zM2,28H3V29H2zM4,28H5V29H4zM5,28H6V29H5zM6,28H7V29H6zM9,28H10V29H9zM12,28H13V29H12zM13,28H14V29H13zM15,28H16V29H15zM16,28H17V29H16zM18,28H19V29H18zM19,28H20V29H19zM20,28H21V29H20zM21,28H22V29H21zM23,28H24V29H23zM24,28H25V29H24zM27,28H28V29H27zM28,28H29V29H28zM29,28H30V29H29zM30,28H31V29H30zM33,28H34V29H33zM35,28H36V29H35zM40,28H41V29H40zM41,28H42V29H41zM42,28H43V29H42zM43,28H44V29H43zM45,28H46V29H45zM1,29H2V30H1zM4,29H5V30H4zM7,29H8V30H7zM8,29H9V30H8zM10,29H11V30H10zM11,29H12V30H11zM12,29H13V30H12zM13,29H14V30H13zM14,29H15V30H14zM18,29H19V30H18zM20,29H21V30H20zM22,29H23V30H22zM24,29H25V30H24zM32,29H33V30H32zM36,29H37V30H36zM39,29H40V30H39zM40,29H41V30H40zM41,29H42V30H41zM42,29H43V30H42zM45,29H46V30H45zM3,30H4V31H3zM4,30H5V31H4zM6,30H7V31H6zM9,30H10V31H9zM10,30H11V31H10zM12,30H13V31H12zM13,30H14V31H13zM18,30H19V31H18zM20,30H21V31H20zM23,30H24V31H23zM24,30H25V31H24zM25,30H26V31H25zM26,30H27V31H26zM28,30H29V31H28zM31,30H32V31H31zM33,30H34V31H33zM34,30H35V31H34zM35,30H36V31H35zM38,30H39V31H38zM40,30H41V31H40zM41,30H42V31H41zM45,30H46V31H45zM1,31H2V32H1zM3,31H4V32H3zM4,31H5V32H4zM5,31H6V32H5zM7,31H8V32H7zM8,31H9V32H8zM11,31H12V32H11zM13,31H14V32H13zM19,31H20V32H19zM20,31H21V32H20zM23,31H24V32H23zM25,31H26V32H25zM26,31H27V32H26zM29,31H30V32H29zM30,31H31V32H30zM36,31H37V32H36zM39,31H40V32H39zM41,31H42V32H41zM43,31H44V32H43zM45,31H46V32H45zM4,32H5V33H4zM5,32H6V33H5zM9,32H10V33H9zM11,32H12V33H11zM14,32H15V33H14zM21,32H22V33H21zM25,32H26V33H25zM26,32H27V33H26zM27,32H28V33H27zM29,32H30V33H29zM36,32H37V33H36zM37,32H38V33H37zM38,32H39V33H38zM39,32H40V33H39zM40,32H41V33H40zM42,32H43V33H42zM43,32H44V33H43zM44,32H45V33H44zM45,32H46V33H45zM1,33H2V34H1zM2,33H3V34H2zM5,33H6V34H5zM6,33H7V34H6zM7,33H8V34H7zM8,33H9V34H8zM9,33H10V34H9zM13,33H14V34H13zM14,33H15V34H14zM15,33H16V34H15zM19,33H20V34H19zM21,33H22V34H21zM22,33H23V34H22zM26,33H27V34H26zM29,33H30V34H29zM31,33H32V34H31zM35,33H36V34H35zM37,33H38V34H37zM38,33H39V34H38zM39,33H40V34H39zM40,33H41V34H40zM44,33H45V34H44zM45,33H46V34H45zM1,34H2V35H1zM4,34H5V35H4zM5,34H6V35H5zM6,34H7V35H6zM9,34H10V35H9zM12,34H13V35H12zM13,34H14V35H13zM15,34H16V35H15zM20,34H21V35H20zM23,34H24V35H23zM24,34H25V35H24zM27,34H28V35H27zM28,34H29V35H28zM29,34H30V35H29zM30,34H31V35H30zM31,34H32V35H31zM33,34H34V35H33zM34,34H35V35H34zM35,34H36V35H35zM36,34H37V35H36zM37,34H38V35H37zM39,34H40V35H39zM40,34H41V35H40zM41,34H42V35H41zM43,34H44V35H43zM44,34H45V35H44zM5,35H6V36H5zM7,35H8V36H7zM10,35H11V36H10zM14,35H15V36H14zM15,35H16V36H15zM21,35H22V36H21zM26,35H27V36H26zM28,35H29V36H28zM31,35H32V36H31zM34,35H35V36H34zM35,35H36V36H35zM37,35H38V36H37zM38,35H39V36H38zM39,35H40V36H39zM41,35H42V36H41zM43,35H44V36H43zM44,35H45V36H44zM45,35H46V36H45zM2,36H3V37H2zM3,36H4V37H3zM4,36H5V37H4zM5,36H6V37H5zM12,36H13V37H12zM13,36H14V37H13zM17,36H18V37H17zM18,36H19V37H18zM19,36H20V37H19zM23,36H24V37H23zM24,36H25V37H24zM25,36H26V37H25zM30,36H31V37H30zM31,36H32V37H31zM33,36H34V37H33zM35,36H36V37H35zM37,36H38V37H37zM38,36H39V37H38zM40,36H41V37H40zM42,36H43V37H42zM43,36H44V37H43zM44,36H45V37H44zM45,36H46V37H45zM1,37H2V38H1zM4,37H5V38H4zM5,37H6V38H5zM7,37H8V38H7zM8,37H9V38H8zM11,37H12V38H11zM14,37H15V38H14zM15,37H16V38H15zM16,37H17V38H16zM17,37H18V38H17zM19,37H20V38H19zM21,37H22V38H21zM22,37H23V38H22zM23,37H24V38H23zM24,37H25V38H24zM25,37H26V38H25zM29,37H30V38H29zM30,37H31V38H30zM33,37H34V38H33zM34,37H35V38H34zM35,37H36V38H35zM36,37H37V38H36zM37,37H38V38H37zM38,37H39V38H38zM39,37H40V38H39zM40,37H41V38H40zM41,37H42V38H41zM44,37H45V38H44zM45,37H46V38H45zM9,38H10V39H9zM10,38H11V39H10zM11,38H12V39H11zM12,38H13V39H12zM15,38H16V39H15zM16,38H17V39H16zM18,38H19V39H18zM20,38H21V39H20zM21,38H22V39H21zM25,38H26V39H25zM26,38H27V39H26zM30,38H31V39H30zM31,38H32V39H31zM32,38H33V39H32zM33,38H34V39H33zM37,38H38V39H37zM41,38H42V39H41zM42,38H43V39H42zM43,38H44V39H43zM44,38H45V39H44zM1,39H2V40H1zM2,39H3V40H2zM3,39H4V40H3zM4,39H5V40H4zM5,39H6V40H5zM6,39H7V40H6zM7,39H8V40H7zM11,39H12V40H11zM15,39H16V40H15zM16,39H17V40H16zM18,39H19V40H18zM21,39H22V40H21zM23,39H24V40H23zM25,39H26V40H25zM29,39H30V40H29zM31,39H32V40H31zM34,39H35V40H34zM35,39H36V40H35zM37,39H38V40H37zM39,39H40V40H39zM41,39H42V40H41zM42,39H43V40H42zM1,40H2V41H1zM7,40H8V41H7zM9,40H10V41H9zM10,40H11V41H10zM12,40H13V41H12zM14,40H15V41H14zM17,40H18V41H17zM19,40H20V41H19zM21,40H22V41H21zM25,40H26V41H25zM28,40H29V41H28zM30,40H31V41H30zM31,40H32V41H31zM32,40H33V41H32zM34,40H35V41H34zM36,40H37V41H36zM37,40H38V41H37zM41,40H42V41H41zM43,40H44V41H43zM1,41H2V42H1zM3,41H4V42H3zM4,41H5V42H4zM5,41H6V42H5zM7,41H8V42H7zM9,41H10V42H9zM11,41H12V42H11zM13,41H14V42H13zM17,41H18V42H17zM19,41H20V42H19zM21,41H22V42H21zM22,41H23V42H22zM23,41H24V42H23zM24,41H25V42H24zM25,41H26V42H25zM27,41H28V42H27zM31,41H32V42H31zM33,41H34V42H33zM35,41H36V42H35zM36,41H37V42H36zM37,41H38V42H37zM38,41H39V42H38zM39,41H40V42H39zM40,41H41V42H40zM41,41H42V42H41zM44,41H45V42H44zM1,42H2V43H1zM3,42H4V43H3zM4,42H5V43H4zM5,42H6V43H5zM7,42H8V43H7zM9,42H10V43H9zM14,42H15V43H14zM17,42H18V43H17zM20,42H21V43H20zM22,42H23V43H22zM24,42H25V43H24zM25,42H26V43H25zM28,42H29V43H28zM30,42H31V43H30zM31,42H32V43H31zM32,42H33V43H32zM33,42H34V43H33zM35,42H36V43H35zM36,42H37V43H36zM40,42H41V43H40zM43,42H44V43H43zM1,43H2V44H1zM3,43H4V44H3zM4,43H5V44H4zM5,43H6V44H5zM7,43H8V44H7zM11,43H12V44H11zM14,43H15V44H14zM15,43H16V44H15zM19,43H20V44H19zM20,43H21V44H20zM21,43H22V44H21zM22,43H23V44H22zM24,43H25V44H24zM26,43H27V44H26zM27,43H28V44H27zM28,43H29V44H28zM29,43H30V44H29zM34,43H35V44H34zM37,43H38V44H37zM38,43H39V44H38zM39,43H40V44H39zM41,43H42V44H41zM45,43H46V44H45zM1,44H2V45H1zM7,44H8V45H7zM9,44H10V45H9zM11,44H12V45H11zM14,44H15V45H14zM15,44H16V45H15zM16,44H17V45H16zM17,44H18V45H17zM18,44H19V45H18zM19,44H20V45H19zM20,44H21V45H20zM21,44H22V45H21zM22,44H23V45H22zM23,44H24V45H23zM24,44H25V45H24zM28,44H29V45H28zM31,44H32V45H31zM32,44H33V45H32zM37,44H38V45H37zM39,44H40V45H39zM43,44H44V45H43zM44,44H45V45H44zM45,44H46V45H45zM1,45H2V46H1zM2,45H3V46H2zM3,45H4V46H3zM4,45H5V46H4zM5,45H6V46H5zM6,45H7V46H6zM7,45H8V46H7zM11,45H12V46H11zM13,45H14V46H13zM14,45H15V46H14zM15,45H16V46H15zM18,45H19V46H18zM21,45H22V46H21zM25,45H26V46H25zM26,45H27V46H26zM27,45H28V46H27zM28,45H29V46H28zM29,45H30V46H29zM30,45H31V46H30zM31,45H32V46H31zM36,45H37V46H36zM39,45H40V46H39zM41,45H42V46H41zM42,45H43V46H42z" id="qr-path" fill="#000000" fill-opacity="1" fill-rule="nonzero" stroke="none"/></svg>